<svg width="20px" height="20px" viewBox="0 0 20 20" xmlns="http://www.w3.org/2000/svg">
    <path d="M1.90826785,9.3853214 L7.06185558,16.7813909 L18.0918105,0.95200564 C18.2696105,0.696456843 18.5509821,0.532625918 18.86062,0.504359952 C19.1702579,0.476093986 19.4765491,0.586278836 19.6975192,0.805425048 C20.0637725,1.19147366 20.1017667,1.78480746 19.7877547,2.21458197 L8.13299486,18.9406459 C7.88853002,19.2911726 7.48861474,19.5 7.06180293,19.5 C6.63499112,19.5 6.23507584,19.2911726 5.990611,18.9406459 L0.212323634,10.6480032 C-0.101777593,10.2181871 -0.0638044972,9.62474811 0.30250655,9.23863532 C0.523500601,9.01949848 0.829809372,8.90933121 1.13945597,8.93761739 C1.44910257,8.96590357 1.7304742,9.12975536 1.90826785,9.3853214 Z"></path>
</svg>