<?xml version="1.0" encoding="UTF-8"?>
<svg width="18px" height="18px" viewBox="0 0 18 18" version="1.1" xmlns="http://www.w3.org/2000/svg" xmlns:xlink="http://www.w3.org/1999/xlink">
    <title>news</title>
    <defs>
        <filter id="filter-1">
            <feColorMatrix in="SourceGraphic" type="matrix" values="0 0 0 0 0.647092 0 0 0 0 0.647092 0 0 0 0 0.647092 0 0 0 1.000000 0"></feColorMatrix>
        </filter>
    </defs>
    <g id="Page-1" stroke="none" stroke-width="1" fill="none" fill-rule="evenodd">
        <g id="link-drop-site" transform="translate(-539.000000, -461.000000)">
            <g id="news" transform="translate(539.000000, 458.000000)" filter="url(#filter-1)">
                <g transform="translate(0.000000, 3.000000)">
                    <path d="M2.40832,17.60832 C1.0828366,17.60832 0.00832,16.5338034 0.00832,15.20832 L0.00832,0.40832 C0.00832,0.18736 0.36652,0.00832 0.80832,0.00832 C1.25012,0.00832 1.60832,0.18736 1.60832,0.40832 C1.60832,0.62928 1.96652,0.80832 2.40832,0.80832 C2.85012,0.80832 3.20832,0.6292 3.20832,0.40832 C3.20832,0.18744 3.56648,0.00832 4.00832,0.00832 C4.45016,0.00832 4.80832,0.18736 4.80832,0.40832 C4.80832,0.62928 5.16648,0.80832 5.60832,0.80832 C6.05016,0.80832 6.40832,0.6292 6.40832,0.40832 C6.40832,0.18744 6.76648,0.00832 7.20832,0.00832 C7.65016,0.00832 8.00832,0.18736 8.00832,0.40832 C8.00832,0.62928 8.36648,0.80832 8.80832,0.80832 C9.25016,0.80832 9.60832,0.6292 9.60832,0.40832 C9.60832,0.18744 9.96644,0.00832 10.40832,0.00832 C10.8502,0.00832 11.20832,0.18736 11.20832,0.40832 C11.20832,0.62928 11.56644,0.80832 12.00832,0.80832 C12.4502,0.80832 12.80832,0.6292 12.80832,0.40832 C12.80832,0.18744 13.16644,0.00832 13.60832,0.00832 C14.0502,0.00832 14.40832,0.18736 14.40832,0.40832 C14.40832,0.62928 14.76644,0.80832 15.20832,0.80832 C15.6502,0.80832 16.00832,0.6292 16.00832,0.40832 C16.00832,0.18744 16.36644,0.00832 16.80832,0.00832 C17.2502,0.00832 17.60832,0.18736 17.60832,0.40832 L17.60832,15.20832 C17.60832,16.5338034 16.5338034,17.60832 15.20832,17.60832 L2.40832,17.60832 Z M2.80832,8.80832 C2.5874061,8.80832 2.40832,8.9874061 2.40832,9.20832 L2.40832,14.00832 C2.40832,14.2292339 2.5874061,14.40832 2.80832,14.40832 L6.80832,14.40832 C7.0292339,14.40832 7.20832,14.2292339 7.20832,14.00832 L7.20832,9.20832 C7.20832,8.9874061 7.0292339,8.80832 6.80832,8.80832 L2.80832,8.80832 Z M13.60832,4.40832 C13.60832,4.1874061 13.4292339,4.00832 13.20832,4.00832 L4.40832,4.00832 C4.1874061,4.00832 4.00832,4.1874061 4.00832,4.40832 L4.00832,5.20832 C4.00832,5.4292339 4.1874061,5.60832 4.40832,5.60832 L13.20832,5.60832 C13.4292339,5.60832 13.60832,5.4292339 13.60832,5.20832 L13.60832,4.40832 Z M14.80832,8.80832 L9.20832,8.80832 C8.9874061,8.80832 8.80832,8.9874061 8.80832,9.20832 C8.80832,9.4292339 8.9874061,9.60832 9.20832,9.60832 L14.80832,9.60832 C15.0292339,9.60832 15.20832,9.4292339 15.20832,9.20832 C15.20832,8.9874061 15.0292339,8.80832 14.80832,8.80832 Z M14.80832,11.20832 L9.20832,11.20832 C8.9874061,11.20832 8.80832,11.3874061 8.80832,11.60832 C8.80832,11.8292339 8.9874061,12.00832 9.20832,12.00832 L14.80832,12.00832 C15.0292339,12.00832 15.20832,11.8292339 15.20832,11.60832 C15.20832,11.3874061 15.0292339,11.20832 14.80832,11.20832 Z M14.80832,13.60832 L9.20832,13.60832 C8.9874061,13.60832 8.80832,13.7874061 8.80832,14.00832 C8.80832,14.2292339 8.9874061,14.40832 9.20832,14.40832 L14.80832,14.40832 C15.0292339,14.40832 15.20832,14.2292339 15.20832,14.00832 C15.20832,13.7874061 15.0292339,13.60832 14.80832,13.60832 Z" id="Shape" fill="#000000" fill-rule="nonzero"></path>
                </g>
            </g>
        </g>
    </g>
</svg>