<svg width="287" height="86" viewBox="0 0 287 86" fill="none" xmlns="http://www.w3.org/2000/svg">
<rect width="287" height="86" fill="white"/>
<path fill-rule="evenodd" clip-rule="evenodd" d="M114.957 37.8708V18.1846H124.729V10H97V18.1846H106.771V37.8708H114.957ZM139.386 37.8708V28.0492H150.829V37.8708H158.971V10H150.829V19.8215H139.386V10H131.243V37.8708H139.386ZM189.957 29.6862V37.8708H168.743V34.5969H165.486V13.2738H168.743V10H189.957V18.1846H173.629V19.8215H186.7V28.0492H173.629V29.6862H189.957ZM34.4127 67.5359V75.658H10V48H18.1233V67.5359H34.4127ZM62.0746 67.5359V75.658H40.9113V67.5359H47.4099V56.1221H40.9113V48H62.0746V56.1221H55.5759V67.5359H62.0746ZM76.6965 75.658V62.6198H78.3212V65.9115H81.5705V69.1603H84.8626V72.4092H88.1119V75.658H96.2352V48H88.1119V60.9954H86.4873V57.7466H83.2379V54.4977H79.9459V51.2489H76.6965V48H68.5732V75.658H76.6965ZM110.857 65.9115V75.658H102.734V48H110.857V57.7466H112.482V54.4977H115.731V51.2489H122.273V48H130.396V56.1221H127.147V59.371H120.648V64.287H127.147V67.5359H130.396V75.658H122.273V72.4092H115.731V69.1603H112.482V65.9115H110.857ZM171.205 72.6229V75.8718H146.792V48.2137H171.205V51.4626H174.454V72.6229H171.205ZM154.915 67.7496H166.331V56.3359H154.915V67.7496ZM189.076 66.1252V75.8718H180.953V48.2137H205.365V51.4626H208.615V62.8336H205.365V67.7496H208.615V75.8718H200.491V72.6229H197.242V69.3741H193.95V66.1252H189.076ZM189.076 57.9603H200.491V56.3359H189.076V57.9603ZM239.526 72.6229V75.8718H218.363V72.6229H215.113V51.4626H218.363V48.2137H239.526V51.4626H242.775V72.6229H239.526ZM223.237 67.7496H234.652V56.3359H223.237V67.7496ZM257.397 69.3741V75.8718H249.274V48.2137H273.687V51.4626H276.936V66.1252H273.687V69.3741H257.397ZM257.397 61.2092H268.813V56.3359H257.397V61.2092Z" fill="#D15F2E"/>
</svg>
