<svg width="266" height="65" viewBox="0 0 266 65" xmlns="http://www.w3.org/2000/svg">
<path fill-rule="evenodd" clip-rule="evenodd" d="M104.589 27.5019V8.0763H114.326V0H86.695V8.0763H96.4322V27.5019H104.589ZM128.932 27.5019V17.8104H140.335V27.5019H148.449V0H140.335V9.69156H128.932V0H120.818V27.5019H128.932ZM179.326 19.4256V27.5019H158.186V24.2714H154.941V3.23052H158.186V0H179.326V8.0763H163.055V10H176L176.081 17.8104H163.055V19.4256H179.326ZM24.3271 56.7744V64.7891H0V37.4971H8.09482V56.7744H24.3271ZM51.892 56.7744V64.7891H30.8029V56.7744H37.2787V45.5117H30.8029V37.4971H51.892V45.5117H45.4162V56.7744H51.892ZM66.4627 64.7891V51.9235H68.0817V55.1715H71.3196V58.3774H74.6001V61.5832H77.8381V64.7891H85.9329V37.4971H77.8381V50.3205H76.2191V47.1147H72.9812V43.9088H69.7006V40.703H66.4627V37.4971H58.3679V64.7891H66.4627ZM100.504 55.1715V64.7891H92.4088V37.4971H100.504V47.1147H102.123V43.9088H105.36V40.703H111.879V37.4971H119.974V45.5117H116.736V48.7176H110.26V53.5686H116.736V56.7744H119.974V64.7891H111.879V61.5832H105.36V58.3774H102.123V55.1715H100.504ZM160.64 61.7941V65H136.312V37.708H160.64V40.9139H163.877V61.7941H160.64ZM144.407 56.9854H155.783V45.7227H144.407V56.9854ZM178.448 55.3824V65H170.353V37.708H194.68V40.9139H197.918V52.1344H194.68V56.9854H197.918V65H189.824V61.7941H186.586V58.5883H183.305V55.3824H178.448ZM179 48H190V46H179V48ZM228.721 61.7941V65H207.632V61.7941H204.394V40.9139H207.632V37.708H228.721V40.9139H231.959V61.7941H228.721ZM213 57H224L223.864 46H213V57ZM262.762 58.5883H246.53V65H238.435V37.708H262.762V40.9139H266V55.3824H262.762V58.5883ZM246.53 50.5315H257.905V45.7227H246.53V50.5315Z"/>
</svg>
