<svg width="128" height="128" viewBox="0 0 128 128" fill="none" xmlns="http://www.w3.org/2000/svg">
<circle cx="64.5229" cy="63.5" r="42.5" fill="#1E60AB"/>
<path fill-rule="evenodd" clip-rule="evenodd" d="M72.2118 29.6942L71.0189 29.7644L72.2118 29.8346C72.2445 30.1125 72.4689 30.3317 72.7491 30.3565L72.8202 31.5657L72.8916 30.3521C73.154 30.3125 73.3601 30.1014 73.3922 29.8367L74.6216 29.7644L73.3922 29.6921C73.3601 29.4274 73.154 29.2163 72.8916 29.1767L72.8202 27.9631L72.7491 29.1723C72.4689 29.1971 72.2445 29.4163 72.2118 29.6942Z" fill="white"/>
<circle cx="72.8871" cy="39.002" r="0.424575" fill="white"/>
<circle cx="66.8582" cy="35.4355" r="0.33966" fill="white"/>
<circle cx="63.2068" cy="33.5674" r="0.33966" fill="white"/>
<circle cx="62.018" cy="30.0859" r="0.424575" fill="white"/>
<circle cx="66.8157" cy="30.6379" r="0.467033" fill="white"/>
<circle cx="64.523" cy="25.5429" r="0.382118" fill="white"/>
<circle cx="56.5834" cy="33.3976" r="0.33966" fill="white"/>
<circle cx="57.6024" cy="34.0769" r="0.33966" fill="white"/>
<circle cx="58.6214" cy="34.7562" r="0.33966" fill="white"/>
<circle cx="57.0504" cy="36.0724" r="0.297203" fill="white"/>
<path fill-rule="evenodd" clip-rule="evenodd" d="M52.8512 42.1767L51.6583 42.2469L52.8512 42.317C52.8839 42.5949 53.1083 42.8142 53.3885 42.8389L53.4596 44.0482L53.531 42.8346C53.7934 42.795 53.9995 42.5839 54.0316 42.3192L55.261 42.2469L54.0316 42.1746C53.9995 41.9098 53.7934 41.6988 53.531 41.6592L53.4596 40.4456L53.3885 41.6548C53.1083 41.6796 52.8839 41.8988 52.8512 42.1767Z" fill="white"/>
<circle cx="50.7243" cy="43.3326" r="0.33966" fill="white"/>
<circle cx="49.1958" cy="41.5494" r="0.33966" fill="white"/>
<circle cx="39.8551" cy="85.3656" r="0.424575" fill="white"/>
<circle cx="38.2418" cy="84.007" r="0.33966" fill="white"/>
<circle cx="38.7088" cy="81.6718" r="0.467033" fill="white"/>
<circle cx="34.2083" cy="82.0964" r="0.382118" fill="white"/>
<circle cx="45.2472" cy="83.7098" r="0.382118" fill="white"/>
<circle cx="49.6204" cy="79.6763" r="0.424575" fill="white"/>
<circle cx="49.5355" cy="71.7792" r="0.33966" fill="white"/>
<path fill-rule="evenodd" clip-rule="evenodd" d="M48.6904 93.2956L47.4975 93.3658L48.6904 93.4359C48.7231 93.7138 48.9475 93.9331 49.2277 93.9578L49.2988 95.1671L49.3702 93.9535C49.6325 93.9139 49.8387 93.7028 49.8708 93.4381L51.1001 93.3658L49.8708 93.2935C49.8387 93.0287 49.6325 92.8177 49.3702 92.7781L49.2988 91.5645L49.2277 92.7737C48.9475 92.7985 48.7231 93.0177 48.6904 93.2956Z" fill="white"/>
<circle cx="52.2952" cy="85.4081" r="0.467033" fill="white"/>
<circle cx="48.2193" cy="88.55" r="0.382118" fill="white"/>
<circle cx="52.8472" cy="89.4416" r="0.33966" fill="white"/>
<circle cx="62.1029" cy="88.5075" r="0.33966" fill="white"/>
<circle cx="70.0849" cy="85.6204" r="0.33966" fill="white"/>
<path fill-rule="evenodd" clip-rule="evenodd" d="M90.3837 86.7572L89.1908 86.8273L90.3837 86.8975C90.4164 87.1754 90.6408 87.3946 90.921 87.4194L90.9921 88.6286L91.0635 87.415C91.3258 87.3754 91.532 87.1644 91.5641 86.8996L92.7934 86.8273L91.5641 86.755C91.532 86.4903 91.3258 86.2792 91.0635 86.2396L90.9921 85.026L90.921 86.2352C90.6408 86.26 90.4164 86.4793 90.3837 86.7572Z" fill="white"/>
<circle cx="80.1474" cy="83.7947" r="0.382118" fill="white"/>
<circle cx="80.1474" cy="79.0395" r="0.382118" fill="white"/>
<circle cx="83.3741" cy="79.7188" r="0.467033" fill="white"/>
<circle cx="83.4166" cy="76.7892" r="0.424575" fill="white"/>
<circle cx="89.488" cy="76.0674" r="0.297203" fill="white"/>
<circle cx="90.2097" cy="78.1478" r="0.424575" fill="white"/>
<circle cx="96.0265" cy="80.5679" r="0.382118" fill="white"/>
<circle cx="93.9886" cy="81.3322" r="0.382118" fill="white"/>
<circle cx="90.2097" cy="84.9411" r="0.424575" fill="white"/>
<circle cx="93.3092" cy="86.8517" r="0.382118" fill="white"/>
<circle cx="82.5674" cy="94.2817" r="0.33966" fill="white"/>
<path fill-rule="evenodd" clip-rule="evenodd" d="M94.0351 77.6712L92.8422 77.7414L94.0351 77.8116C94.0678 78.0894 94.2921 78.3087 94.5724 78.3335L94.6435 79.5427L94.7149 78.3291C94.9772 78.2895 95.1833 78.0784 95.2154 77.8137L96.4448 77.7414L95.2154 77.6691C95.1833 77.4043 94.9772 77.1933 94.7149 77.1537L94.6435 75.9401L94.5724 77.1493C94.2921 77.1741 94.0678 77.3933 94.0351 77.6712Z" fill="white"/>
<path d="M66.4336 47.0264C64.15 44.9582 60.2914 41.8382 56.6259 40.0332C51.0215 37.2734 47.8796 37.8254 45.9266 38.6745C43.9735 39.5237 42.7422 42.5382 42.7422 45.765C42.7422 48.9917 43.7188 53.1101 44.6104 55.3179C45.3237 57.0841 46.9739 60.5261 47.7098 62.0262C49.1053 64.8709 51.4036 68.3524 53.1019 70.6026C53.7433 71.4525 54.3187 72.1907 54.7958 72.8029L54.7964 72.8036C55.4945 73.6993 55.9823 74.3251 56.1588 74.6361L57.8231 76.7164C58.1601 77.2739 58.8698 78.3661 59.3856 78.8819C59.851 79.3472 60.0224 79.6332 60.1764 79.8901C60.2472 80.0082 60.3143 80.1201 60.4046 80.2405C60.7867 80.75 61.2962 81.3868 62.3152 82.2785C63.0739 82.9423 63.5604 83.0325 63.7953 83.076C63.8128 83.0792 63.8289 83.0822 63.8436 83.0851C64.1125 83.1417 64.7353 83.1021 65.0749 82.4907C65.4117 81.8846 64.8937 81.4387 64.3896 81.0047C64.2581 80.8916 64.1276 80.7792 64.0135 80.6651C63.4615 80.1131 62.485 79.3489 61.6359 78.8819C60.9565 78.5082 59.612 77.042 58.9186 76.2494C57.7439 74.8342 54.9785 71.4602 53.3142 69.2864C51.2338 66.5691 48.1344 61.0921 47.0305 58.5022C45.9266 55.9123 45.035 53.6196 44.3556 51.3269C43.6763 49.0342 43.5489 47.5481 43.7612 44.4487C43.9735 41.3493 45.5869 39.5237 47.6673 39.0566C49.5905 38.6249 50.2438 38.7737 51.2371 38.9999L51.2462 39.0019C51.3246 39.0198 51.4051 39.0381 51.4885 39.0566C52.6349 39.3114 55.6918 40.1181 58.9186 42.2834C62.1453 44.4487 62.7398 44.8733 64.7353 46.6565C65.0906 46.9741 65.477 47.3146 65.8809 47.6705L65.8813 47.6709C66.0623 47.8304 66.2468 47.993 66.4336 48.158V47.0264Z" fill="white"/>
<path d="M19.9001 78.8272L21.0889 79.3367C21.0889 78.9376 24.0609 77.0312 30.1748 74.7513C37.4435 72.0407 48.8278 69.3195 53.6114 68.2977C57.9987 67.3354 69.3716 64.5275 79.7652 60.995C90.1588 57.4626 97.5691 52.8432 99.975 50.975C103.513 48.5691 111.269 42.993 113.986 39.9361C116.703 36.8791 119.194 31.4163 120.1 29.067C119.505 30.3124 114.58 36.1998 106.598 41.5495C97.2238 48.5465 81.8032 54.7679 75.2647 57.004C71.3586 58.4193 60.4555 62.2518 48.0919 66.2598C35.7283 70.2678 24.1458 76.308 19.9001 78.8272Z" fill="#E92F42"/>
<path d="M47.0729 58.2793V58.0693H55.0619V58.2793L53.5718 59.5392L57.3101 65.629L60.97 59.6442L59.1923 58.2793V58.0693H65.1673V58.2793L63.3374 59.7755L59.0763 66.7315V71.9026L60.5403 73.2938V73.4775H51.6216V73.2938L53.0333 71.9026V66.9152L48.4585 59.5392L47.0729 58.2793Z" fill="white"/>
<path d="M69.3568 58.7472C69.9929 58.336 72.6559 57.5135 75.04 57.5135C76.8592 57.5135 79.433 58.1638 79.433 58.1638C79.433 58.1638 80.431 57.4903 80.4514 57.5312C80.4718 57.5722 80.4514 62.8946 80.4514 62.8946L76.2708 59.3575C76.2708 59.3575 76.095 59.2603 75.1195 59.2C73.6313 59.2 71.8467 60.5237 71.443 62.2646C71.2868 62.873 71.1278 64.1831 71.1293 67.1469C71.1307 69.9818 72.6281 70.684 73.3775 71.0778C73.665 71.2702 74.7484 71.6637 75.6204 71.6552C76.4924 71.6467 77.2621 71.2702 77.3928 71.0778V67.1469L75.6936 65.7557V65.5457H82.5427V65.7557L81.0788 67.1469V73.368L78.543 72.5805C78.543 72.5805 75.7271 73.5113 73.8898 73.368C72.0552 73.2248 70.5279 73.0897 68.6248 71.8718C66.7217 70.6538 65.8276 68.0569 65.6185 66.9107C65.4616 66.0795 65.3362 63.9865 66.089 62.2646C66.8419 60.5426 68.5812 59.2022 69.3568 58.7472Z" fill="white"/>
<path fill-rule="evenodd" clip-rule="evenodd" d="M83.926 57.5462V57.7562L85.39 59.1211V71.3795L83.926 72.7707V72.9544H92.1817V72.7707L90.6393 71.3795V66.2084H91.7373L95.1357 71.6945L94.3776 72.7707V72.9544H101.76V72.7707L99.7994 71.3795L96.1134 65.7359C96.8193 65.5084 98.3878 64.7384 99.0152 63.4785C99.7899 61.9227 99.4422 60.8792 99.3832 60.7022L99.3812 60.6961C99.3772 60.6841 99.3725 60.6664 99.3664 60.6435C99.2918 60.3639 99.009 59.304 97.3421 58.3337C95.8991 57.4937 92.0074 57.4587 90.6393 57.5462H83.926ZM90.6393 65.3159V58.4649C91.0489 58.4211 92.1085 58.3599 93.0705 58.4649C94.0325 58.5699 94.6739 59.6286 94.8743 60.1448C94.9614 60.5298 95.0834 61.683 94.8743 63.216C94.6651 64.7489 92.9049 65.2547 92.051 65.3159H90.6393Z" fill="white"/>
<path d="M35.3212 58.0229H27.1179V58.2329L28.5295 59.4929L33.5487 73.4312H38.9445L43.8853 59.7291L45.6891 58.2329V58.0229H39.9222V58.2329L41.5691 59.7291L37.7524 70.78L33.9357 59.4929L35.3212 58.2329V58.0229Z" fill="white"/>
<path d="M31.3636 103.707V102.179L44.3557 90.4606C45.2614 89.4699 48.7203 86.3846 55.3097 81.9691C61.8991 77.5535 69.6037 72.4869 72.6324 70.5055L82.3976 64.2218C88.987 59.8741 94.9367 55.2774 97.0879 53.5225L100.485 50.5505C99.1825 50.5222 97.0879 50.1938 99.1259 49.1069C101.673 47.7483 105.749 43.9271 109.74 40.7003C112.933 38.1189 117.977 31.8692 120.1 29.067C119.619 30.2275 118.334 33.1768 117.043 35.6903C115.43 38.8322 111.863 42.5685 108.297 46.4745C105.444 49.5994 100.032 53.8339 97.6823 55.5605C94.9934 57.5135 88.7832 61.98 85.4546 64.2218C82.1259 66.4636 71.387 73.3643 66.4336 76.5345C63.1502 78.7989 55.4116 84.1599 50.7243 87.4885C46.037 90.8172 35.8641 99.688 31.3636 103.707Z" fill="#E92F42"/>
<path d="M66.4335 48.2005C68.1708 49.7351 70.108 51.4801 71.2737 52.8979C72.8446 54.8085 77.493 60.8571 80.0624 65.1256C82.3138 68.8658 83.033 70.8979 83.3357 71.753C83.3869 71.8978 83.4263 72.0088 83.459 72.0887C84.1525 73.9427 85.5394 78.2875 85.5394 80.8349C85.5394 84.0192 85.3696 85.2505 84.1383 86.779C82.9071 88.3075 80.3171 88.6047 78.449 88.4773C76.9545 88.3754 74.1467 87.3027 72.9295 86.779V87.0762C74.2033 87.7131 77.2242 88.8317 79.0859 88.9868C80.1049 89.0717 82.6948 89.284 85.0299 86.9064C85.4686 86.4535 86.3291 84.8259 86.2612 81.9388C86.1763 78.3299 85.4121 75.273 84.7327 73.2775C84.0534 71.282 82.2277 67.1636 81.421 65.8474C80.6144 64.5312 79.3831 62.5782 78.2792 60.9223C77.1753 59.2665 73.4815 54.0867 71.1039 51.7515C69.2018 49.8834 68.0469 48.6521 67.7073 48.27C67.3742 47.9395 66.9431 47.5304 66.4335 47.0689V48.2005Z" fill="white"/>
</svg>
